<?xml version="1.0" standalone="no"?>
<!DOCTYPE svg PUBLIC "-//W3C//DTD SVG 20010904//EN"
 "http://www.w3.org/TR/2001/REC-SVG-20010904/DTD/svg10.dtd">
<svg version="1.0" xmlns="http://www.w3.org/2000/svg"
 width="230.000000pt" height="230.000000pt" viewBox="0 0 230.000000 230.000000"
 preserveAspectRatio="xMidYMid meet">
<metadata>
Created by potrace 1.14, written by Peter Selinger 2001-2017
</metadata>
<g transform="translate(0.000000,230.000000) scale(0.100000,-0.100000)"
fill="#000000" stroke="none">
<path d="M1443 2179 c-85 -14 -145 -42 -431 -199 -208 -115 -284 -151 -320
-156 -124 -14 -246 -71 -331 -154 -60 -58 -118 -159 -141 -242 -20 -75 -9
-191 25 -268 16 -36 35 -71 42 -78 7 -7 13 -16 13 -20 0 -4 20 -28 44 -53 l44
-47 -35 -33 c-40 -40 -100 -135 -114 -181 -50 -171 -14 -325 106 -459 168
-188 472 -231 686 -99 27 16 52 30 54 30 3 0 56 29 118 64 315 178 332 187
384 192 240 24 432 185 483 402 32 139 -22 301 -142 428 -24 25 -27 34 -16 40
23 14 84 96 108 144 71 140 65 298 -17 438 -43 74 -139 160 -228 202 -112 53
-211 68 -332 49z m216 -309 c82 -42 132 -132 117 -212 -16 -89 -110 -160 -215
-164 -58 -2 -76 5 -251 105 -30 17 -81 45 -113 62 -32 16 -55 34 -52 38 3 5
26 20 53 33 52 27 144 77 211 116 89 50 180 59 250 22z m-784 -390 c186 -97
265 -144 258 -151 -10 -10 -261 -149 -269 -149 -3 0 -19 -9 -35 -21 -35 -25
-129 -33 -183 -17 -114 35 -178 170 -126 266 47 88 104 122 200 121 57 -1 76
-7 155 -49z m793 -334 c77 -40 130 -131 118 -202 -19 -104 -106 -174 -220
-176 -55 -2 -71 6 -286 126 -36 20 -80 44 -97 53 -18 9 -33 20 -33 23 0 4 33
24 73 45 96 50 174 93 216 118 18 11 47 24 65 28 44 11 128 4 164 -15z m-893
-347 c30 -6 111 -44 213 -100 90 -50 162 -92 160 -94 -6 -6 -236 -130 -298
-162 -99 -49 -175 -49 -252 2 -146 96 -103 308 72 355 37 10 50 10 105 -1z"/>
</g>
</svg>
