<?xml version="1.0" encoding="UTF-8" standalone="no"?>
<svg
   xmlns:dc="http://purl.org/dc/elements/1.1/"
   xmlns:cc="http://creativecommons.org/ns#"
   xmlns:rdf="http://www.w3.org/1999/02/22-rdf-syntax-ns#"
   xmlns:svg="http://www.w3.org/2000/svg"
   xmlns="http://www.w3.org/2000/svg"
   xmlns:sodipodi="http://sodipodi.sourceforge.net/DTD/sodipodi-0.dtd"
   xmlns:inkscape="http://www.inkscape.org/namespaces/inkscape"
   version="1.1"
   id="svg2"
   xml:space="preserve"
   width="1056"
   height="816"
   viewBox="0 0 1056 816"
   sodipodi:docname="logo.svg"
   transform="scale(3,3)"
   inkscape:version="0.92.5 (2060ec1f9f, 2020-04-08)"><metadata
     id="metadata8"><rdf:RDF><cc:Work
         rdf:about=""><dc:format>image/svg+xml</dc:format><dc:type
           rdf:resource="http://purl.org/dc/dcmitype/StillImage" /><dc:title></dc:title></cc:Work></rdf:RDF></metadata><defs
     id="defs6"><clipPath
       clipPathUnits="userSpaceOnUse"
       id="clipPath20"><path
         d="M 0,612 H 792 V 0 H 0 Z"
         id="path18" /></clipPath><linearGradient
       x1="0"
       y1="0"
       x2="1"
       y2="0"
       gradientUnits="userSpaceOnUse"
       gradientTransform="matrix(178.62987,178.62987,178.62987,-178.62987,306.68518,216.68755)"
       spreadMethod="pad"
       id="linearGradient42"><stop
         style="stop-opacity:1;stop-color:#00b2ff"
         offset="0"
         id="stop38" /><stop
         style="stop-opacity:1;stop-color:#dfffa3"
         offset="1"
         id="stop40" /></linearGradient><clipPath
       clipPathUnits="userSpaceOnUse"
       id="clipPath52"><path
         d="M 0,612 H 792 V 0 H 0 Z"
         id="path50" /></clipPath><clipPath
       clipPathUnits="userSpaceOnUse"
       id="clipPath60"><path
         d="M 275.004,343.52 H 522.411 V 179.588 H 275.004 Z"
         id="path58" /></clipPath><clipPath
       clipPathUnits="userSpaceOnUse"
       id="clipPath76"><path
         d="M 269.589,358.963 H 522.411 V 179.588 H 269.589 Z"
         id="path74" /></clipPath><clipPath
       clipPathUnits="userSpaceOnUse"
       id="clipPath92"><path
         d="M 269.589,312.051 H 488.546 V 179.593 H 269.589 Z"
         id="path90" /></clipPath><clipPath
       clipPathUnits="userSpaceOnUse"
       id="clipPath108"><path
         d="M 306.377,216.853 H 472.79 V 179.588 H 306.377 Z"
         id="path106" /></clipPath><clipPath
       clipPathUnits="userSpaceOnUse"
       id="clipPath124"><path
         d="M 298.099,261.006 H 509.456 V 179.593 H 298.099 Z"
         id="path122" /></clipPath></defs><sodipodi:namedview
     pagecolor="#ffffff"
     bordercolor="#666666"
     borderopacity="1"
     objecttolerance="10"
     gridtolerance="10"
     guidetolerance="10"
     inkscape:pageopacity="0"
     inkscape:pageshadow="2"
     inkscape:window-width="877"
     inkscape:window-height="1038"
     id="namedview4"
     showgrid="true"
     showguides="false"
     inkscape:zoom="0.20450637"
     inkscape:cx="325.43359"
     inkscape:cy="114.59914"
     inkscape:window-x="0"
     inkscape:window-y="20"
     inkscape:window-maximized="0"
     inkscape:current-layer="g10"
     scale-x="0.5"><inkscape:grid
       type="xygrid"
       id="grid124" /></sodipodi:namedview><g
     id="g10"
     inkscape:groupmode="layer"
     inkscape:label="mist"
     transform="matrix(1.3333333,0,0,-1.3333333,0,816)"><path
       d="M 792,0 C 264,0 528,0 792,0 Z"
       style="fill:#ffffff;fill-opacity:1;fill-rule:nonzero;stroke:none"
       id="path12"
       inkscape:connector-curvature="0"
       sodipodi:nodetypes="cc" /><g
       id="g14"><g
         id="g16"
         clip-path="url(#clipPath20)"><g
           id="g22"
           transform="translate(528.2949,306)"><path
             d="m 0,0 c 0,-73.064 -59.23,-132.295 -132.295,-132.295 -73.064,0 -132.295,59.231 -132.295,132.295 0,73.064 59.231,132.295 132.295,132.295 C -59.23,132.295 0,73.064 0,0"
             style="fill:#ffffff;fill-opacity:1;fill-rule:nonzero;stroke:none"
             id="path24"
             inkscape:connector-curvature="0" /></g></g></g><g
       id="g26"><g
         id="g28"><g
           id="g34"><g
             id="g36"><path
               d="m 269.59,306.003 c 0,-69.626 56.784,-126.412 126.41,-126.412 v 0 c 69.626,0 126.411,56.786 126.411,126.412 v 0 c 0,69.625 -56.785,126.409 -126.411,126.409 v 0 c -69.626,0 -126.41,-56.784 -126.41,-126.409"
               style="fill:url(#linearGradient42);stroke:none"
               id="path44"
               inkscape:connector-curvature="0" /></g></g></g></g><g
       id="g46"><g
         id="g48"
         clip-path="url(#clipPath52)"><g
           id="g54"><g
             id="g56" /><g
             id="g68"><g
               clip-path="url(#clipPath60)"
               id="g66"
               style="opacity:0.25"><g
                 transform="translate(516.749,343.52)"
                 id="g64"><path
                   d="m 0,0 c 3.677,-11.854 5.662,-24.455 5.662,-37.521 0,-69.814 -56.597,-126.411 -126.411,-126.411 -57.057,0 -105.276,37.807 -120.996,89.732 C -111.054,-72.084 -55.479,-8.844 0,0"
                   style="fill:#ffffff;fill-opacity:1;fill-rule:evenodd;stroke:none"
                   id="path62"
                   inkscape:connector-curvature="0" /></g></g></g></g><g
           id="g70"><g
             id="g72" /><g
             id="g84"><g
               clip-path="url(#clipPath76)"
               id="g82"
               style="opacity:0.25"><g
                 transform="translate(522.374,309.0669)"
                 id="g80"><path
                   d="m 0,0 c 0.024,-1.02 0.037,-2.044 0.037,-3.068 0,-69.814 -56.597,-126.411 -126.411,-126.411 -69.814,0 -126.411,56.597 -126.411,126.411 0,18.764 4.098,36.569 11.43,52.58 C -160.337,55.98 -91.066,-21.721 0,0"
                   style="fill:#ffffff;fill-opacity:1;fill-rule:evenodd;stroke:none"
                   id="path78"
                   inkscape:connector-curvature="0" /></g></g></g></g><g
           id="g86"><g
             id="g88" /><g
             id="g100"><g
               clip-path="url(#clipPath92)"
               id="g98"
               style="opacity:0.25"><g
                 transform="translate(396,179.5928)"
                 id="g96"><path
                   d="m 0,0 c 36.534,0 69.431,15.729 92.546,40.647 -76.258,28.307 -112.44,79.928 -218.65,91.811 -0.097,-2.018 -0.307,-4.006 -0.307,-6.048 C -126.411,56.784 -69.625,0 0,0"
                   style="fill:#ffffff;fill-opacity:1;fill-rule:evenodd;stroke:none"
                   id="path94"
                   inkscape:connector-curvature="0" /></g></g></g></g><g
           id="g102"><g
             id="g104" /><g
             id="g116"><g
               clip-path="url(#clipPath108)"
               id="g114"
               style="opacity:0.14999402"><g
                 transform="translate(472.79,205.5898)"
                 id="g112"><path
                   d="m 0,0 c -21.286,-16.304 -47.901,-26.002 -76.79,-26.002 -35.027,0 -66.731,14.248 -89.623,37.266 C -99.264,7.164 -42.505,-13.874 0,0"
                   style="fill:#34b263;fill-opacity:1;fill-rule:evenodd;stroke:none"
                   id="path110"
                   inkscape:connector-curvature="0" /></g></g></g></g><g
           id="g118"><g
             id="g120" /><g
             id="g132"><g
               clip-path="url(#clipPath124)"
               id="g130"
               style="opacity:0.14999402"><g
                 transform="translate(298.0986,226.2314)"
                 id="g128"><path
                   d="m 0,0 c 23.212,-28.422 58.488,-46.639 97.901,-46.639 49.777,0 92.863,29.095 113.456,71.083 C 143.502,58.639 72.45,-3.297 0,0"
                   style="fill:#34b263;fill-opacity:1;fill-rule:evenodd;stroke:none"
                   id="path126"
                   inkscape:connector-curvature="0" /></g></g></g></g><g
           id="g134"
           transform="translate(387.2168,317.8071)"><path
             d="m 0,0 c 3.591,-6.22 1.479,-14.168 -4.739,-17.772 -6.197,-3.592 -14.145,-1.47 -17.737,4.751 l -13.809,23.912 c -3.591,6.217 -1.483,14.165 4.728,17.759 6.207,3.591 14.156,1.46 17.747,-4.737 z m 51.088,-23.609 c -3.59,6.208 -1.469,14.146 4.729,17.75 6.195,3.591 14.156,1.479 17.746,-4.738 l 13.81,-23.912 c 3.605,-6.208 1.483,-14.158 -4.727,-17.749 -6.208,-3.592 -14.157,-1.484 -17.747,4.724 z m -84.61,0.349 v 0 l -13.81,-23.925 c -3.591,-6.208 -11.539,-8.316 -17.747,-4.726 -6.211,3.592 -8.332,11.543 -4.728,17.751 l 13.81,23.911 c 3.591,6.219 11.552,8.331 17.747,4.739 6.197,-3.604 8.319,-11.543 4.728,-17.75 M 31.162,23.913 -2.562,-34.509 c -3.591,-6.208 -1.482,-14.158 4.738,-17.749 6.199,-3.592 14.146,-1.484 17.737,4.724 L 53.66,10.891 c 3.595,6.217 1.46,14.165 -4.739,17.759 -6.207,3.591 -14.142,1.46 -17.759,-4.737"
             style="fill:#ffffff;fill-opacity:1;fill-rule:evenodd;stroke:none"
             id="path136"
             inkscape:connector-curvature="0" /></g></g></g></g></svg>
